<svg style="display: none;">
    <symbol id="i-sent" viewBox="0 0 24 24" xmlns="http://www.w3.org/2000/svg">
        <path d="M21.73 8.87334L5.39671 0.706674C4.75212 0.385851 4.02426 0.271636 3.31238 0.379601C2.60051 0.487566 1.93925 0.812456 1.41876 1.30998C0.898282 1.8075 0.543906 2.45343 0.403953 3.15972C0.263999 3.86601 0.345279 4.59827 0.636711 5.25667L3.43671 11.5217C3.50024 11.6731 3.53297 11.8358 3.53297 12C3.53297 12.1643 3.50024 12.3269 3.43671 12.4783L0.636711 18.7433C0.399528 19.2762 0.299259 19.8598 0.345018 20.4413C0.390776 21.0227 0.58111 21.5835 0.898723 22.0727C1.21634 22.5618 1.65116 22.9639 2.16367 23.2423C2.67618 23.5206 3.25014 23.6665 3.83338 23.6667C4.37965 23.6612 4.91778 23.5337 5.40838 23.2933L21.7417 15.1267C22.3211 14.8352 22.8081 14.3885 23.1484 13.8364C23.4886 13.2843 23.6688 12.6485 23.6688 12C23.6688 11.3515 23.4886 10.7157 23.1484 10.1636C22.8081 9.61149 22.3211 9.16479 21.7417 8.87334H21.73ZM20.6917 13.0383L4.35838 21.205C4.1439 21.308 3.90306 21.3429 3.66816 21.3052C3.43326 21.2674 3.21552 21.1587 3.04414 20.9937C2.87276 20.8286 2.75594 20.6152 2.70933 20.3818C2.66272 20.1485 2.68856 19.9065 2.78338 19.6883L5.57171 13.4233C5.60781 13.3397 5.63897 13.254 5.66505 13.1667L13.7034 13.1667C14.0128 13.1667 14.3095 13.0438 14.5283 12.825C14.7471 12.6062 14.87 12.3094 14.87 12C14.87 11.6906 14.7471 11.3938 14.5283 11.175C14.3095 10.9563 14.0128 10.8333 13.7034 10.8333L5.66505 10.8333C5.63897 10.746 5.60781 10.6603 5.57171 10.5767L2.78338 4.31167C2.68856 4.09346 2.66272 3.85148 2.70933 3.61817C2.75594 3.38486 2.87276 3.17138 3.04414 3.00635C3.21552 2.84131 3.43326 2.73263 3.66816 2.69485C3.90306 2.65708 4.1439 2.69202 4.35838 2.79501L20.6917 10.9617C20.8828 11.0596 21.0432 11.2083 21.1552 11.3915C21.2672 11.5747 21.3264 11.7853 21.3264 12C21.3264 12.2147 21.2672 12.4253 21.1552 12.6085C21.0432 12.7917 20.8828 12.9404 20.6917 13.0383Z" fill="#8385A9"/>
    </symbol>

    <symbol id="i-smile" viewBox="0 0 18 18" xmlns="http://www.w3.org/2000/svg">
        <path d="M10.9665 10.8584C10.4094 11.3075 9.71542 11.5524 8.99984 11.5524C8.28426 11.5524 7.59024 11.3075 7.03317 10.8584C6.86299 10.7169 6.64359 10.6489 6.42324 10.6692C6.20288 10.6895 5.99962 10.7965 5.85817 10.9667C5.71673 11.1369 5.64867 11.3563 5.66899 11.5766C5.68931 11.797 5.79633 12.0002 5.96651 12.1417C6.81762 12.8522 7.89114 13.2414 8.99984 13.2414C10.1085 13.2414 11.1821 12.8522 12.0332 12.1417C12.2034 12.0002 12.3104 11.797 12.3307 11.5766C12.351 11.3563 12.283 11.1369 12.1415 10.9667C12.0715 10.8824 11.9855 10.8128 11.8886 10.7617C11.7916 10.7107 11.6856 10.6792 11.5764 10.6692C11.3561 10.6489 11.1367 10.7169 10.9665 10.8584ZM6.49984 8.16669C6.66466 8.16669 6.82578 8.11781 6.96282 8.02625C7.09986 7.93468 7.20667 7.80453 7.26974 7.65226C7.33281 7.49999 7.34932 7.33243 7.31716 7.17078C7.28501 7.00913 7.20564 6.86064 7.0891 6.7441C6.97255 6.62755 6.82407 6.54819 6.66242 6.51603C6.50076 6.48388 6.33321 6.50038 6.18094 6.56345C6.02867 6.62653 5.89852 6.73334 5.80695 6.87038C5.71538 7.00742 5.66651 7.16854 5.66651 7.33335C5.66651 7.55437 5.7543 7.76633 5.91059 7.92261C6.06687 8.07889 6.27883 8.16669 6.49984 8.16669ZM11.4998 6.50002C11.335 6.50002 11.1739 6.54889 11.0369 6.64046C10.8998 6.73203 10.793 6.86218 10.7299 7.01445C10.6669 7.16672 10.6504 7.33428 10.6825 7.49593C10.7147 7.65758 10.794 7.80607 10.9106 7.92261C11.0271 8.03915 11.1756 8.11852 11.3373 8.15068C11.4989 8.18283 11.6665 8.16633 11.8187 8.10325C11.971 8.04018 12.1012 7.93337 12.1927 7.79633C12.2843 7.65929 12.3332 7.49817 12.3332 7.33335C12.3332 7.11234 12.2454 6.90038 12.0891 6.7441C11.9328 6.58782 11.7209 6.50002 11.4998 6.50002ZM8.99984 0.666687C7.35166 0.666687 5.7405 1.15543 4.37009 2.07111C2.99968 2.98679 1.93158 4.28827 1.30084 5.81099C0.670115 7.33371 0.505087 9.00926 0.82663 10.6258C1.14817 12.2423 1.94185 13.7271 3.10728 14.8926C4.27272 16.058 5.75758 16.8517 7.37409 17.1732C8.9906 17.4948 10.6662 17.3297 12.1889 16.699C13.7116 16.0683 15.0131 15.0002 15.9288 13.6298C16.8444 12.2594 17.3332 10.6482 17.3332 9.00002C17.3332 7.90567 17.1176 6.82204 16.6988 5.81099C16.28 4.79994 15.6662 3.88129 14.8924 3.10746C14.1186 2.33364 13.1999 1.71981 12.1889 1.30102C11.1778 0.882235 10.0942 0.666687 8.99984 0.666687ZM8.99984 15.6667C7.6813 15.6667 6.39237 15.2757 5.29604 14.5432C4.19971 13.8106 3.34523 12.7694 2.84064 11.5512C2.33606 10.3331 2.20404 8.99263 2.46127 7.69942C2.71851 6.40621 3.35345 5.21833 4.2858 4.28598C5.21815 3.35363 6.40603 2.71869 7.69924 2.46145C8.99245 2.20422 10.3329 2.33624 11.5511 2.84082C12.7692 3.34541 13.8104 4.19989 14.543 5.29622C15.2755 6.39255 15.6665 7.68148 15.6665 9.00002C15.6665 10.7681 14.9641 12.4638 13.7139 13.7141C12.4636 14.9643 10.768 15.6667 8.99984 15.6667Z" fill="#8385A9"/>
    </symbol>

    <symbol id="i-file" viewBox="0 0 15 18" xmlns="http://www.w3.org/2000/svg">
        <path d="M13.0667 9.34997L7.91672 14.5083C7.24156 15.1083 6.36267 15.4277 5.45982 15.4011C4.55697 15.3745 3.69839 15.004 3.0597 14.3653C2.42101 13.7266 2.05048 12.8681 2.0239 11.9652C1.99732 11.0624 2.3167 10.1835 2.91672 9.50831L9.58338 2.84164C9.98141 2.46356 10.5094 2.25275 11.0584 2.25275C11.6074 2.25275 12.1354 2.46356 12.5334 2.84164C12.9212 3.23463 13.1386 3.76453 13.1386 4.31664C13.1386 4.86875 12.9212 5.39865 12.5334 5.79164L6.78338 11.5333C6.72648 11.5946 6.65806 11.6441 6.58203 11.6789C6.50601 11.7137 6.42386 11.7333 6.34029 11.7364C6.25672 11.7395 6.17335 11.7261 6.09496 11.6969C6.01656 11.6678 5.94467 11.6235 5.88339 11.5666C5.8221 11.5097 5.77263 11.4413 5.73779 11.3653C5.70294 11.2893 5.68342 11.2071 5.68032 11.1235C5.67723 11.04 5.69062 10.9566 5.71974 10.8782C5.74887 10.7998 5.79315 10.7279 5.85005 10.6666L10.1251 6.39997C10.282 6.24305 10.3701 6.03023 10.3701 5.80831C10.3701 5.58639 10.282 5.37356 10.1251 5.21664C9.96813 5.05972 9.7553 4.97156 9.53339 4.97156C9.31147 4.97156 9.09864 5.05972 8.94172 5.21664L4.66672 9.49997C4.45281 9.71223 4.28302 9.96473 4.16716 10.2429C4.0513 10.5211 3.99165 10.8195 3.99165 11.1208C3.99165 11.4222 4.0513 11.7205 4.16716 11.9987C4.28302 12.2769 4.45281 12.5294 4.66672 12.7416C5.1037 13.1579 5.68406 13.3901 6.28755 13.3901C6.89104 13.3901 7.47141 13.1579 7.90839 12.7416L13.6501 6.99164C14.3125 6.28077 14.6731 5.34053 14.6559 4.36903C14.6388 3.39752 14.2452 2.4706 13.5582 1.78353C12.8711 1.09647 11.9442 0.702906 10.9727 0.685765C10.0012 0.668624 9.06093 1.02924 8.35005 1.69164L1.68339 8.35831C0.784385 9.354 0.304242 10.6582 0.342996 11.9991C0.381751 13.3401 0.936413 14.6143 1.89142 15.5564C2.84642 16.4986 4.12812 17.0359 5.46946 17.0564C6.8108 17.0769 8.10833 16.5791 9.09172 15.6666L14.2501 10.5166C14.3278 10.4389 14.3894 10.3467 14.4314 10.2452C14.4735 10.1437 14.4951 10.0349 14.4951 9.92497C14.4951 9.81509 14.4735 9.70628 14.4314 9.60477C14.3894 9.50325 14.3278 9.41101 14.2501 9.33331C14.1724 9.25561 14.0801 9.19397 13.9786 9.15192C13.8771 9.10987 13.7683 9.08823 13.6584 9.08823C13.5485 9.08823 13.4397 9.10987 13.3382 9.15192C13.2367 9.19397 13.1444 9.25561 13.0667 9.33331V9.34997Z" fill="#8385A9"/>
    </symbol>
</svg>
